<svg width="81" height="72" viewBox="0 0 81 72" fill="none" xmlns="http://www.w3.org/2000/svg">
<path d="M37.3594 36.094L37.4297 35.8596C37.3828 35.9299 37.3594 36.0003 37.3594 36.094Z" fill="#00C52A"/>
<path d="M46.5937 19.805V20.2737C46.5937 21.4221 45.9844 22.4768 45 23.0393L32.7422 30.094C32.7188 30.3753 32.7188 30.6565 32.7422 30.9378C32.7422 37.2425 37.8281 42.3518 44.1328 42.3753C50.4375 42.3753 55.5469 37.2893 55.5703 30.9846C55.5703 25.6175 51.8437 20.9534 46.5937 19.805Z" fill="#FAA819"/>
<path d="M34.8281 46.0784C35.2266 46.3362 35.7656 46.1956 36.0234 45.7971C36.1172 45.6565 36.1406 45.4925 36.1406 45.3518V40.7581C33.2344 38.3675 31.5234 34.7815 31.4766 31.0081V30.8675L20.2266 37.2893L34.8281 46.0784Z" fill="#158560"/>
<path d="M19.2422 36.5628V17.0393C19.2422 16.3362 19.6172 15.68 20.2031 15.305L42.2578 1.17214C43.2187 0.562765 44.4844 0.820577 45.1172 1.78151C45.3281 2.10964 45.4453 2.50808 45.4453 2.90652V20.2503C45.4453 21.0003 45.0469 21.6799 44.4141 22.0315L19.2422 36.5628Z" fill="#00C52A"/>
<path d="M51.2109 26.0393C51.1406 25.9221 51 25.8518 50.8828 25.8518H47.2735V24.6096C47.2735 24.469 47.1563 24.3518 46.9922 24.3518H45.0703C44.9297 24.3518 44.8125 24.469 44.8125 24.6096V25.8753H44.625C44.4609 25.8753 44.2969 25.9925 44.25 26.1331L43.6641 27.7503C43.5938 27.9612 43.6875 28.1956 43.8984 28.2893C43.9453 28.3128 43.9922 28.3128 44.0391 28.3128H44.8359V29.555H43.2188C43.0547 29.555 42.8906 29.6721 42.8438 29.8362L42.2344 31.4534C42.1641 31.5706 42.1641 31.7112 42.2344 31.8284C42.3047 31.9456 42.4453 31.9925 42.5625 31.9925H44.8125V34.7346C44.8125 34.9221 44.6485 35.0862 44.461 35.0862H40.9453C40.1016 35.1096 39.375 34.4534 39.3516 33.5862C39.3281 32.7425 39.9844 32.0159 40.8516 31.9925C41.0156 31.9925 41.1797 31.8753 41.2266 31.7112L41.8359 30.094C41.9297 29.8831 41.8125 29.6487 41.625 29.555C41.5781 29.5315 41.5078 29.5315 41.4609 29.5315H40.8516C38.6484 29.6721 36.9609 31.5706 37.1016 33.7737C37.2188 35.8362 38.9063 37.4534 40.9688 37.5237H46.8281C47.0625 37.5237 47.2266 37.3596 47.25 37.1253V32.0159H48.8438C49.0078 32.0159 49.1719 31.9221 49.2188 31.7581L49.8281 30.1409C49.875 30.0237 49.8516 29.8596 49.7813 29.7659C49.7109 29.6487 49.5703 29.6018 49.4531 29.6018H47.25V28.3596H50.25C50.4141 28.3596 50.5781 28.2425 50.625 28.0784L51.2578 26.4612C51.3281 26.344 51.3281 26.2034 51.2578 26.0862" fill="white"/>
<path d="M70.6172 50.5784C70.2656 50.18 69.7266 49.969 69.2109 50.0393C68.6016 50.0159 67.9922 50.2034 67.5234 50.5784C67.1016 50.93 66.7969 51.4221 66.7031 51.9846C66.6797 52.1253 66.6562 52.2893 66.6562 52.43C66.6562 52.7581 66.75 53.0628 66.9375 53.2971C67.3359 53.6956 67.875 53.9065 68.4375 53.8596C69.0469 53.8831 69.6328 53.6956 70.0781 53.2971C70.4531 52.9456 70.7109 52.4768 70.8047 51.9612C70.8516 51.7737 70.875 51.5862 70.8516 51.3987C70.875 51.1175 70.7812 50.8128 70.6172 50.5784Z" fill="#00C52A"/>
<path d="M19.6406 50.0862C19.5234 50.0862 19.4297 50.0862 19.3125 50.0862C18.4453 50.0862 17.8594 50.4612 17.5781 52.0081C17.3437 53.3909 17.0391 54.7971 16.7109 56.2268L16.4062 57.5159C16.125 57.2815 15.8906 57.0706 15.7031 56.93C15.4922 56.7659 15.2812 56.6487 15.0469 56.5315C14.3672 56.2034 13.6172 56.0628 12.8437 56.0628C11.8594 56.0628 10.875 56.2503 9.96094 56.6018C9.02344 56.9768 8.15625 57.4925 7.40625 58.1487C6.63281 58.8518 6 59.6487 5.48438 60.5393C4.94531 61.4768 4.54688 62.4846 4.28906 63.5628C4.10156 64.4065 3.98437 65.2737 3.98437 66.1409C3.96094 67.1018 4.14844 68.0628 4.54688 68.9534C4.82813 69.5862 5.29687 70.1253 5.88281 70.5237C6.51562 70.8987 7.26562 71.0862 8.01562 71.0628C9.04687 71.0393 10.0312 70.7346 10.8984 70.1721C11.7656 69.6565 12.5625 69.0003 13.2187 68.2503C13.7578 67.6643 14.2266 67.0315 14.6016 66.3284L14.2266 68.0393C14.1562 68.3675 14.1328 68.6721 14.1328 69.0003C14.1328 69.3284 14.2031 69.6565 14.3203 69.9612C14.4375 70.2893 14.6484 70.5706 14.9062 70.7581C15.2344 70.969 15.6328 71.0862 16.0078 71.0628C16.2656 71.0628 17.6484 71.0628 17.6719 70.1018C17.6484 69.7971 17.5078 69.5393 17.2969 69.3518C17.1328 69.1878 17.0625 68.9534 17.0859 68.7425C17.1094 68.2971 17.1797 67.8284 17.2969 67.3831C17.2969 67.3831 20.6953 53.18 20.8125 52.6878C21.1406 50.9065 20.6016 50.2737 19.6406 50.0862ZM14.1094 64.8284C13.4766 65.9065 12.7031 66.8909 11.7656 67.7112C11.3906 68.0393 10.9687 68.344 10.5234 68.5784C10.1719 68.7659 9.79687 68.8596 9.39844 68.8831C8.4375 68.9768 7.57031 68.344 7.33594 67.43C7.21875 67.0081 7.14844 66.5628 7.17187 66.1175C7.19531 65.2737 7.3125 64.4534 7.5 63.6331C7.66406 62.9065 7.92187 62.2034 8.29687 61.5471C8.64844 60.9143 9.07031 60.3518 9.58594 59.8362C10.0547 59.3675 10.5937 58.9925 11.1797 58.6878C11.7187 58.43 12.3047 58.2659 12.8906 58.2659C13.3359 58.2425 13.7578 58.3128 14.1797 58.4534C14.8828 58.7112 15.4687 59.2034 15.7969 59.8596L15.5625 61.1018C15.3047 62.4143 14.8125 63.68 14.1094 64.8284Z" fill="#00C52A"/>
<path d="M34.5 57.844C33.9609 57.1878 33.2344 56.6956 32.3906 56.4612C31.5703 56.18 30.7265 56.0393 29.8828 56.0393C28.875 56.0393 27.8672 56.18 26.8828 56.4846C25.8984 56.7659 24.9844 57.2346 24.164 57.8206C23.25 58.4768 22.4765 59.2971 21.8437 60.2581C21.164 61.2893 20.6953 62.4378 20.4375 63.6565C20.2734 64.3596 20.1797 65.0628 20.1797 65.7659C20.1328 67.0081 20.5547 68.2503 21.375 69.1878C21.9375 69.8206 22.6406 70.2893 23.414 70.5471C24.3515 70.8518 25.3125 71.0159 26.2969 70.9924C27.3047 70.969 28.3125 70.7346 29.25 70.3362C29.6484 70.1721 30.0469 69.9612 30.4453 69.7503L30.7734 69.5393C30.8906 69.4925 30.9844 69.4221 31.0547 69.3284C31.289 69.0237 31.2187 68.5784 30.914 68.344C30.7969 68.2503 30.6562 68.2034 30.4922 68.2034C30.375 68.2034 30.2578 68.2268 30.164 68.2971C29.9531 68.4143 29.7187 68.5315 29.4609 68.6253C28.6172 69.0471 27.6797 69.2815 26.7422 69.305C26.2265 69.305 25.7109 69.2112 25.2422 69.0237C24.7969 68.8362 24.4219 68.5315 24.164 68.1331C23.6953 67.43 23.4375 66.6096 23.4844 65.7659C23.4844 65.2737 23.5312 64.7581 23.6484 64.2659H26.8594C28.7109 64.3362 30.539 64.0081 32.2734 63.305C33.5156 62.8362 34.4765 61.805 34.8515 60.5393C34.9219 60.2346 34.9687 59.9065 34.9687 59.5784C35.0156 58.9456 34.8281 58.3596 34.5 57.844ZM31.8281 60.305C31.5469 61.219 30.8203 61.9456 29.9062 62.2268C28.875 62.5315 27.7969 62.6721 26.7422 62.6253H24.1406C24.375 61.8753 24.6797 61.1721 25.1015 60.5159C25.4765 59.9065 25.9453 59.3675 26.4844 58.9221C26.9297 58.5471 27.4453 58.2425 28.0078 58.0315C28.5234 57.844 29.039 57.7268 29.5781 57.7268C29.9297 57.7268 30.2812 57.7737 30.6094 57.8909C30.914 57.9612 31.1953 58.1018 31.4297 58.3128C31.7812 58.6175 31.9687 59.0628 31.9453 59.5081C31.9687 59.7893 31.9219 60.0471 31.8281 60.305Z" fill="#00C52A"/>
<path d="M40.8047 58.0784C41.3672 57.844 41.9766 57.7268 42.5859 57.7503C43.0078 57.7503 43.4297 57.7971 43.8281 57.9612C43.9922 58.0315 44.1328 58.1018 44.2734 58.1721L44.3672 58.219C44.5078 58.2893 44.6484 58.3362 44.8125 58.3362C45.3516 58.3362 45.7734 57.9143 45.7734 57.3753C45.7734 57.0706 45.6094 56.7659 45.3516 56.6018C45.2812 56.555 45.2109 56.5315 45.1406 56.5081C44.4141 56.18 43.6406 56.0159 42.8437 56.0159C42.1172 56.0159 41.4141 56.0862 40.7109 56.2268C39.375 56.4612 38.1797 57.1878 37.3594 58.2893C37.0312 58.7112 36.7969 59.18 36.6328 59.6956C36.4688 60.1643 36.375 60.6331 36.375 61.1253C36.375 61.3128 36.3984 61.5003 36.4453 61.6878C36.6328 62.5081 37.1016 63.2346 37.7812 63.7503C38.4609 64.2659 39.1875 64.7346 39.9141 65.18C40.2422 65.3675 40.5703 65.5784 40.875 65.8362C41.2969 66.1409 41.5547 66.5862 41.6016 67.1018C41.625 67.1956 41.625 67.3128 41.6016 67.4065C41.4609 68.0393 41.0391 68.5784 40.4531 68.8831C39.8438 69.1878 39.1641 69.3284 38.4844 69.305C37.9687 69.305 37.4531 69.2112 36.9609 69.0706C36.4687 68.9065 35.9766 68.6956 35.5313 68.4378C35.3906 68.3675 35.2266 68.3206 35.0625 68.3206C34.5234 68.3206 34.1016 68.7425 34.1016 69.2815C34.1016 69.6565 34.3125 70.0081 34.6641 70.1721L34.8516 70.2659C35.8359 70.7112 36.9141 70.9456 37.9922 70.969C38.8125 70.969 39.6563 70.8987 40.4531 70.6878C41.9062 70.4065 43.1953 69.6096 44.0859 68.4143C44.4141 67.969 44.6719 67.4534 44.8359 66.9143C45 66.4456 45.0937 65.93 45.1172 65.4378C45.1172 65.2503 45.0938 65.0393 45.0469 64.8518C44.8125 64.055 44.3203 63.3284 43.6406 62.8362C42.9375 62.3206 42.2109 61.8518 41.4609 61.43C41.1328 61.2425 40.8047 61.0315 40.5 60.7971C40.2891 60.6331 40.1016 60.4456 39.9375 60.2112C39.8203 60.0237 39.75 59.8128 39.75 59.6018C39.7266 59.5081 39.7266 59.4378 39.75 59.344C39.8672 58.805 40.2656 58.3128 40.8047 58.0784Z" fill="#00C52A"/>
<path d="M65.9062 57.7034C65.9062 57.7737 65.9062 57.844 65.9062 57.9143C65.8828 57.844 65.8828 57.7737 65.9062 57.7034Z" fill="#00C52A"/>
<path d="M69.1406 58.055C69.1172 57.1409 68.3672 56.4143 67.4766 56.4378C66.7734 56.4378 66.1406 56.9065 65.9297 57.5862L63.6562 68.0628C63.5859 68.3206 63.5625 68.5784 63.5625 68.8596C63.5625 69.305 63.6797 69.7503 63.8906 70.1487C64.0547 70.4534 64.3125 70.6878 64.6406 70.8284C65.0156 70.9925 65.4141 71.0862 65.8359 71.0862C66.0937 71.0862 67.3359 71.1565 67.5 70.1253C67.5234 69.7971 67.3359 69.4925 67.0547 69.3518C66.9609 69.2815 66.8906 69.1643 66.8906 69.0471C66.8672 68.9534 66.8672 68.8362 66.8906 68.7425C66.9141 68.344 66.9609 67.969 67.0547 67.5706L68.1562 62.5784C68.3906 61.5471 68.5781 60.7268 68.7422 60.094C68.9062 59.4846 69.0234 58.9456 69.1641 58.4768C69.1406 58.3128 69.1406 58.1956 69.1406 58.055Z" fill="#00C52A"/>
<path d="M61.6172 61.8284C61.7578 61.219 61.8516 60.6096 61.8516 60.0003C61.875 59.2268 61.7109 58.4534 61.3594 57.7737C61.0781 57.2581 60.6797 56.8128 60.1641 56.5315C59.6016 56.2034 58.9453 56.0393 58.2891 56.0628C56.9766 56.0628 55.6875 56.5081 54.6563 57.3284C53.4375 58.3362 52.4297 59.5315 51.6328 60.8909L51.9141 59.8596L52.2891 58.4065L52.7344 56.6956L52.8281 56.3674C53.0156 55.7112 53.1328 55.219 53.2266 54.9143L53.8359 52.6878L53.8828 52.43C54.3281 50.6018 53.4844 50.1096 52.8516 49.9925C52.6172 49.969 52.3828 49.969 52.1484 49.9925C50.9531 50.2268 50.7422 51.6096 50.7422 51.6096C50.625 52.1487 50.1328 54.1643 49.7812 55.969L46.6406 69.0471C46.5469 69.469 46.6406 69.9143 46.9219 70.2425C47.1797 70.6175 47.5547 70.8753 48 70.9456C48.3047 70.9924 48.6328 70.9456 48.9141 70.8284C49.4297 70.6175 49.7812 70.1487 49.875 69.6096C49.875 69.6096 49.875 69.6096 49.875 69.5628C49.9687 69.0237 50.0625 68.4378 50.2031 67.7815C50.3438 67.1253 50.6484 66.0003 50.7891 65.344C50.8828 64.8753 51.0469 64.4299 51.2344 63.9846C51.4453 63.469 51.7031 62.9534 51.9844 62.4612C52.5469 61.4065 53.2734 60.4221 54.1172 59.5784C54.7734 58.8284 55.6875 58.3596 56.6719 58.2659C57.2109 58.219 57.75 58.4299 58.125 58.8284C58.4766 59.2971 58.6406 59.8831 58.6172 60.4925C58.5938 61.0784 58.5234 61.6409 58.3828 62.2268L57.0469 68.0159C56.9531 68.3206 56.9297 68.6487 56.9297 68.9768C56.9062 69.4925 57.0703 69.9846 57.3984 70.3831C57.6094 70.6409 57.8906 70.8284 58.1953 70.9456C58.5 71.0628 58.8281 71.1565 59.1562 71.1565C59.4375 71.1565 60.75 71.0862 60.8203 70.1956C60.8438 69.9143 60.7031 69.6331 60.4453 69.469C60.2344 69.3284 60.1172 69.094 60.1406 68.8362C60.1641 68.4143 60.2344 68.0159 60.3516 67.594L61.6172 61.8284Z" fill="#00C52A"/>
<path d="M72.9375 49.9456H75.6562V50.4612H74.625V53.8596H73.9922V50.4612H72.9375V49.9456Z" fill="black"/>
<path d="M76.3125 49.9456H77.0156L78.3516 53.0159L79.7109 49.9456H80.3906V53.8596H79.7344V51.2346L78.5391 53.9065H78.0938L76.9453 51.2346V53.9065H76.2891L76.3125 49.9456Z" fill="black"/>
</svg>
